# xmcd CD database file
#
# Track frame offsets:
#	150
#	29778
#	53385
#	77693
#	105103
#	135528
#	157305
#	186953
#	212900
#	239648
#
# Disc length: 3513 seconds
#
# Revision: 2
# Processed by: cddbd v1.5.2PL0 Copyright (c) Steve Scherf et al.
# Submitted via: CDex 1.70beta2
#
DISCID=870db70a
DTITLE=Teena Marie - Super Hits
DYEAR=2002
DGENRE=R&B
TTITLE0=If I Were A Bell - Teena Marie
TTITLE1=Dear Lover - Teena Marie
TTITLE2=My Dear Mr. Gaye - Teena Marie
TTITLE3=Just Us Two - Teena Marie
TTITLE4=Shadow Boxing - Teena Marie
TTITLE5=Lover Girl - Teena Marie
TTITLE6=Out On A Limb - Teena Marie
TTITLE7=Work It - Teena Marie
TTITLE8=Cassanova Brown - Teena Marie
TTITLE9=Ooo La La La - Teena Marie
EXTD=YEAR: 2002
EXTT0=
EXTT1=
EXTT2=
EXTT3=
EXTT4=
EXTT5=
EXTT6=
EXTT7=
EXTT8=
EXTT9=
PLAYORDER=
